<?xml version="1.0" standalone="no"?>
<!DOCTYPE svg PUBLIC "-//W3C//DTD SVG 20010904//EN"
 "http://www.w3.org/TR/2001/REC-SVG-20010904/DTD/svg10.dtd">
<svg version="1.0" xmlns="http://www.w3.org/2000/svg"
 width="5417.000000pt" height="2500.000000pt" viewBox="0 0 5417.000000 2500.000000"
 preserveAspectRatio="xMidYMid meet">

<g transform="translate(0.000000,2500.000000) scale(0.100000,-0.100000)"
fill="#000000" stroke="none">
<path d="M39270 15279 c-850 -75 -1386 -497 -1496 -1179 -9 -57 -16 -159 -16
-255 0 -255 35 -423 127 -610 132 -271 354 -453 737 -606 170 -68 394 -127
759 -199 357 -71 461 -97 615 -151 313 -110 502 -289 576 -544 20 -70 23 -102
23 -250 0 -147 -3 -181 -23 -250 -63 -220 -202 -379 -427 -490 -179 -88 -341
-127 -612 -146 -485 -35 -1007 87 -1563 364 -101 50 -188 94 -192 95 -5 2 -8
-154 -8 -346 l0 -350 118 -40 c534 -183 957 -266 1412 -279 602 -17 1101 95
1450 325 117 77 290 253 358 365 142 229 203 471 204 797 0 433 -115 737 -376
995 -150 148 -322 256 -556 349 -176 69 -332 110 -730 191 -547 112 -696 153
-865 237 -176 89 -273 206 -322 388 -27 101 -25 330 5 433 37 130 88 218 179
310 177 178 430 271 807 297 441 30 943 -80 1460 -319 49 -23 90 -41 92 -41 2
0 4 149 4 330 l0 330 -27 11 c-148 58 -617 169 -853 203 -266 38 -650 54 -860
35z"/>
<path d="M3800 12670 l0 -2531 1068 4 c1047 3 1070 3 1205 25 441 72 745 214
975 457 157 166 251 348 304 590 29 134 36 443 13 590 -55 357 -245 661 -531
851 -125 83 -271 146 -459 196 l-50 14 91 21 c402 95 638 336 730 748 21 95
30 409 15 515 -81 554 -471 901 -1136 1010 -211 35 -378 40 -1312 40 l-913 0
0 -2530z m1980 1951 c136 -23 239 -54 338 -102 179 -86 291 -222 344 -416 28
-102 31 -342 5 -445 -72 -290 -269 -453 -634 -524 -76 -15 -173 -18 -720 -21
l-633 -4 0 766 0 767 618 -5 c380 -3 642 -9 682 -16z m95 -2085 c251 -41 413
-109 539 -227 176 -164 248 -365 247 -689 -1 -457 -184 -732 -567 -853 -189
-60 -200 -60 -936 -64 l-678 -4 0 931 0 932 648 -5 c535 -4 664 -7 747 -21z"/>
<path d="M8560 12670 l0 -2530 340 0 340 0 0 1071 0 1071 473 -5 c439 -4 479
-6 571 -26 319 -70 484 -206 706 -581 37 -63 227 -433 421 -822 l354 -708 362
0 c200 0 363 2 363 5 0 12 -753 1507 -809 1607 -130 232 -318 483 -438 584
-71 60 -179 131 -229 150 -24 9 -44 20 -44 24 0 3 26 14 57 24 216 68 421 212
554 388 162 217 239 481 239 826 0 818 -396 1280 -1211 1412 -211 34 -396 40
-1236 40 l-813 0 0 -2530z m1830 1946 c372 -73 593 -262 682 -582 19 -69 22
-105 22 -289 1 -189 -2 -219 -22 -295 -80 -297 -272 -485 -572 -564 -155 -41
-237 -46 -762 -46 l-498 0 0 901 0 901 533 -5 c440 -4 547 -7 617 -21z"/>
<path d="M13390 12670 l0 -2530 1630 0 1630 0 0 285 0 285 -1290 0 -1290 0 0
920 0 920 1205 0 1205 0 0 285 0 285 -1205 0 -1205 0 0 750 0 750 1255 0 1255
0 0 290 0 290 -1595 0 -1595 0 0 -2530z"/>
<path d="M17780 12670 l0 -2530 1630 0 1630 0 0 285 0 285 -1290 0 -1290 0 0
920 0 920 1205 0 1205 0 0 285 0 285 -1202 2 -1203 3 -3 748 -2 747 1260 0
1260 0 0 290 0 290 -1600 0 -1600 0 0 -2530z"/>
<path d="M22130 12670 l0 -2530 913 0 c896 0 1118 5 1447 36 670 61 1099 206
1498 507 639 481 950 1228 902 2160 -21 402 -95 707 -244 1012 -318 647 -905
1086 -1651 1234 -445 89 -852 111 -2037 111 l-828 0 0 -2530z m2031 1530 c689
-69 1121 -374 1299 -919 105 -324 116 -788 25 -1130 -157 -589 -591 -933
-1275 -1011 -52 -6 -247 -13 -432 -17 l-338 -6 0 1546 0 1547 309 0 c170 0
355 -5 412 -10z"/>
<path d="M27890 12671 l0 -2531 1218 0 c1240 0 1338 3 1593 40 697 103 1127
403 1288 898 53 162 66 264 66 512 0 242 -10 322 -61 476 -119 366 -400 652
-747 760 l-57 18 95 47 c307 152 486 389 552 728 20 105 22 369 4 486 -64 414
-266 696 -619 866 -165 79 -416 149 -657 184 -260 36 -307 38 -1492 42 l-1183
4 0 -2530z m2272 1612 c194 -54 303 -149 359 -313 30 -87 33 -284 5 -375 -40
-133 -120 -227 -240 -284 -128 -62 -148 -64 -638 -68 l-448 -4 0 536 0 536
443 -3 c413 -4 447 -6 519 -25z m-22 -1943 c339 -42 532 -190 596 -456 23 -96
23 -296 -1 -389 -29 -117 -70 -192 -149 -271 -82 -82 -171 -130 -306 -165 -81
-22 -107 -23 -582 -26 l-498 -4 0 660 0 661 428 0 c235 0 466 -5 512 -10z"/>
<path d="M34525 15168 c-22 -55 -1907 -4992 -1912 -5010 -5 -17 17 -18 353
-18 l359 0 224 633 c123 347 228 640 233 650 8 16 73 17 1147 17 l1138 0 118
-332 c65 -183 169 -475 230 -648 l112 -315 357 -3 356 -2 -17 41 c-9 23 -443
1160 -964 2528 l-947 2486 -387 3 -386 2 -14 -32z m874 -1931 c248 -669 451
-1222 451 -1227 0 -12 -1847 -14 -1853 -2 -2 5 764 2093 913 2487 l12 30 13
-35 c7 -19 216 -583 464 -1253z"/>
<path d="M42390 12670 l0 -2530 1630 0 1630 0 0 285 0 285 -1290 0 -1290 0 0
920 0 920 1205 0 1205 0 0 285 0 285 -1205 0 -1205 0 0 750 0 750 1258 2 1257
3 0 285 0 285 -1597 3 -1598 2 0 -2530z"/>
</g>
</svg>
